<?xml version="1.0" encoding="utf-8"?>
<!-- Generator: Adobe Illustrator 26.5.0, SVG Export Plug-In . SVG Version: 6.00 Build 0)  -->
<svg version="1.1" id="Layer_1" xmlns="http://www.w3.org/2000/svg" xmlns:xlink="http://www.w3.org/1999/xlink" x="0px" y="0px"
	 viewBox="0 0 262.8 262.8" style="enable-background:new 0 0 262.8 262.8;" xml:space="preserve">
<style type="text/css">
	.st0{fill:#010202;}
</style>
<g>
	<path class="st0" d="M156.5,58.8h11.7c11.1,0,19.5,3.5,25.3,10.4s8.7,16.6,8.7,29c0,8.4-1.1,16.9-3.4,25.6c-2.2,8.7-5.4,17-9.4,25
		s-6.4,12.8-7.1,14.4c-6.1,12.5-11.4,24.8-15.9,37c-3,8.1-5.4,16.5-7.4,25.3c-0.9,3.5-1.8,7.1-2.5,10.7L156.5,58.8L156.5,58.8z
		 M103.6,225.3c-1.9-8.7-4.4-17.1-7.4-25.3c-4.5-12.2-9.8-24.5-15.9-37c-0.7-1.6-3.1-6.4-7.1-14.4s-7.1-16.3-9.4-25
		c-2.2-8.7-3.4-17.2-3.4-25.6c0-12.4,2.9-22.1,8.7-29c5.8-6.9,14.2-10.4,25.3-10.4h11.7v177.2C105.4,232.4,104.6,228.8,103.6,225.3
		 M262.8,131.5C262.8,59.1,204.3,0.3,132.1,0C59.5-0.4,0,58.8,0,131.5c0,70,54.7,127.3,123.7,131.3v-11.7v-97.2V64.7
		c0-2.1,1-7.9,2.3-9.6h-3.2H92h-0.9c-17.3,0-30.9,3.9-40.8,11.8c-9.9,7.8-14.9,18.4-14.9,31.6c0,8,2.1,15.9,6.2,23.7
		c4.1,7.8,10.2,17.3,18.2,28.3c7.2,9.6,11.7,16.1,13.6,19.4c9.1,14.9,16.8,30.9,23.3,48.1c3.5,9.3,6.1,19.4,7.7,30.2
		c-6.6-1.5-13.1-3.6-19.4-6.3c-14.3-6-27.1-14.7-38.1-25.7s-19.6-23.8-25.7-38.1c-6.2-14.8-9.4-30.5-9.4-46.6s3.2-31.9,9.4-46.6
		c6-14.3,14.7-27.1,25.7-38.1S70.7,27.2,85,21.1c14.8-6.2,30.4-9.4,46.6-9.4s31.8,3.2,46.6,9.4c14.3,6,27.1,14.7,38.1,25.7
		c11,11,19.6,23.8,25.7,38.1c6.2,14.8,9.4,30.5,9.4,46.6s-3.2,31.9-9.4,46.6c-6,14.3-14.7,27.1-25.7,38.1s-23.8,19.6-38.1,25.7
		c-6.3,2.7-12.8,4.8-19.4,6.3c1.6-10.8,4.1-20.8,7.7-30.2c6.5-17.2,14.2-33.2,23.3-48.1c1.9-3.3,6.5-9.8,13.6-19.4
		c8-11,14-20.4,18.2-28.3c4.1-7.8,6.2-15.8,6.2-23.7c0-13.2-5-23.7-14.9-31.6c-9.9-7.8-23.5-11.8-40.8-11.8h-0.9h-30.8h-3.2
		c1.3,1.7,2.3,7.5,2.3,9.6v89.1V251v11.7C208.1,258.8,262.8,201.5,262.8,131.5"/>
</g>
</svg>
